<svg width="45" height="45" viewBox="0 0 45 45" fill="none" xmlns="http://www.w3.org/2000/svg">
<rect x="25" y="3" width="9" height="3" fill="black"/>
<rect x="1" y="15" width="3" height="12" fill="black"/>
<rect x="4" y="12" width="3" height="3" fill="black"/>
<rect x="4" y="27" width="3" height="3" fill="black"/>
<rect x="7" y="33" width="3" height="6" fill="black"/>
<rect x="16" y="33" width="3" height="6" fill="black"/>
<rect x="19" y="6" width="6" height="3" fill="black"/>
<rect x="7" y="9" width="12" height="3" fill="black"/>
<rect x="7" y="30" width="15" height="3" fill="black"/>
<rect x="10" y="39" width="6" height="3" fill="black"/>
<rect x="13" y="12" width="18" height="3" transform="rotate(90 13 12)" fill="black"/>
<rect x="22" y="33" width="6" height="3" fill="black"/>
<rect x="28" y="36" width="6" height="3" fill="black"/>
<rect x="37" y="15" width="3" height="3" fill="black"/>
<rect x="37" y="24" width="3" height="3" fill="black"/>
<rect x="40" y="18" width="3" height="6" fill="black"/>
<rect x="34" y="6" width="3" height="30" fill="black"/>
<path d="M34 6H25V9H19V12H13V30H22V33H28V36H34V6Z" fill="#FDDF0B"/>
<rect x="31" y="6" width="3" height="30" fill="#FDDF0B"/>
<rect x="31" y="33" width="3" height="3" fill="#EA9E09"/>
<rect x="28" y="33" width="3" height="3" fill="#EA9E09"/>
<rect x="25" y="30" width="3" height="3" fill="#EA9E09"/>
<rect x="22" y="30" width="3" height="3" fill="#EA9E09"/>
<rect x="19" y="27" width="3" height="3" fill="#EA9E09"/>
<rect x="16" y="27" width="3" height="3" fill="#EA9E09"/>
<rect x="13" y="27" width="3" height="3" fill="#EA9E09"/>
<rect x="28" y="6" width="3" height="27" fill="#FDDF0B"/>
<rect x="25" y="6" width="3" height="24" fill="#FDDF0B"/>
<rect x="22" y="9" width="3" height="21" fill="#FDDF0B"/>
<rect x="19" y="9" width="3" height="18" fill="#FDDF0B"/>
<rect x="16" y="12" width="3" height="15" fill="#FDDF0B"/>
<rect x="13" y="12" width="3" height="15" fill="#FDDF0B"/>
<rect x="7" y="15" width="3" height="15" fill="#F95B03"/>
<rect x="10" y="33" width="6" height="6" fill="#F95B03"/>
<rect x="37" y="18" width="3" height="6" fill="#F95B03"/>
<rect x="4" y="18" width="3" height="9" fill="#F95B03"/>
<rect x="4" y="15" width="3" height="3" fill="white"/>
<rect x="7" y="12" width="3" height="3" fill="white"/>
</svg>
